<svg id="svg" version="1.1" xmlns="http://www.w3.org/2000/svg" xmlns:xlink="http://www.w3.org/1999/xlink" width="400" height="400" viewBox="0, 0, 400,400"><g id="svgg"><path id="path0" d="M198.844 52.392 C 196.836 53.127,196.378 54.093,194.609 61.323 C 192.979 67.980,192.117 70.908,190.862 74.048 C 187.334 82.873,187.417 88.527,191.187 96.024 C 192.415 98.467,192.352 99.987,190.851 104.042 C 190.302 105.524,189.500 108.148,189.068 109.872 C 188.140 113.579,188.608 113.243,183.667 113.746 C 170.395 115.095,155.577 119.812,142.065 126.987 C 136.019 130.197,134.140 131.442,123.416 139.349 C 112.483 147.409,108.754 149.752,102.778 152.314 C 99.713 153.628,99.477 153.641,99.232 152.506 C 97.928 146.467,89.904 144.174,85.493 148.581 C 82.300 151.770,82.274 156.685,85.432 160.032 L 86.958 161.651 85.686 164.188 C 84.050 167.451,74.116 187.911,68.299 200.000 C 60.909 215.358,57.236 222.958,52.845 231.986 C 50.557 236.690,47.496 243.017,46.044 246.046 C 44.592 249.074,42.081 254.268,40.465 257.586 L 37.527 263.620 36.573 263.620 C 35.312 263.620,35.332 263.690,37.372 266.398 C 49.142 282.022,71.154 289.590,99.565 287.779 C 119.671 286.497,136.617 278.277,145.852 265.325 C 146.779 264.026,146.780 263.620,145.859 263.620 C 144.851 263.620,143.373 260.664,115.111 202.109 C 108.269 187.933,97.394 165.491,96.643 163.997 L 95.860 162.440 98.604 161.932 C 107.044 160.370,113.102 158.059,121.386 153.241 C 124.575 151.387,126.326 150.240,134.974 144.338 C 151.349 133.162,165.749 127.869,185.544 125.750 C 186.842 125.611,186.869 125.683,187.216 130.179 C 188.051 141.010,189.749 149.184,193.079 158.407 C 193.928 160.759,194.033 161.260,193.902 162.349 C 193.766 163.480,193.798 163.608,194.240 163.723 C 194.817 163.874,194.903 166.934,194.495 172.818 C 194.370 174.622,194.162 178.049,194.032 180.434 C 193.673 187.029,193.113 197.178,192.855 201.757 C 192.422 209.416,191.915 219.431,191.680 224.956 C 191.551 227.985,191.343 231.992,191.217 233.861 C 190.364 246.558,190.352 265.177,191.196 268.403 C 191.896 271.079,191.844 271.776,190.845 273.084 C 188.713 275.876,188.128 279.389,189.300 282.367 C 189.876 283.831,189.933 284.490,189.520 284.903 C 189.293 285.130,189.301 285.300,189.556 285.708 C 190.030 286.467,189.929 287.393,188.649 294.038 C 186.706 304.127,186.661 304.480,186.652 309.900 C 186.647 312.607,186.775 316.614,186.937 318.805 C 187.099 320.996,187.293 323.760,187.368 324.947 L 187.506 327.106 176.764 327.173 L 166.022 327.241 164.597 328.014 C 162.835 328.970,161.116 330.633,160.370 332.103 L 159.805 333.216 157.290 333.218 C 150.557 333.223,147.551 334.276,145.050 337.504 C 144.085 338.750,143.473 339.141,141.886 339.528 C 139.691 340.062,138.095 341.122,136.332 343.216 C 134.356 345.563,133.932 345.836,130.383 347.055 C 126.976 348.224,125.792 348.891,124.879 350.150 C 123.758 351.699,123.904 351.825,127.009 351.979 C 130.755 352.166,270.488 352.182,273.228 351.996 C 277.759 351.689,275.395 349.002,268.658 346.801 L 266.315 346.035 263.738 343.408 C 260.652 340.265,260.113 339.949,256.543 339.204 C 256.108 339.113,255.642 338.666,255.050 337.776 C 254.157 336.430,252.087 334.770,250.381 334.032 C 249.681 333.729,248.253 333.564,244.737 333.380 L 240.030 333.133 239.372 331.876 C 238.626 330.451,237.187 329.088,235.195 327.921 L 233.835 327.124 226.738 327.124 C 222.835 327.124,218.043 327.054,216.089 326.970 L 212.537 326.816 212.537 325.154 C 212.537 324.240,212.711 321.330,212.922 318.688 C 213.717 308.780,213.524 305.829,211.371 294.903 C 209.930 287.593,209.822 286.778,210.183 285.906 C 210.383 285.423,210.396 285.088,210.225 284.770 C 210.044 284.431,210.127 283.870,210.557 282.514 C 211.650 279.074,211.200 275.956,209.236 273.345 C 208.053 271.772,207.983 271.334,208.545 269.010 C 209.982 263.076,209.484 244.733,206.436 191.330 C 205.769 179.631,205.485 174.459,205.243 169.581 L 204.978 164.236 205.642 163.543 C 206.283 162.874,206.293 162.828,205.927 162.209 C 205.586 161.633,205.583 161.484,205.898 160.748 C 209.271 152.854,211.784 141.550,212.641 130.427 C 212.829 127.992,213.069 125.911,213.176 125.805 C 213.389 125.591,218.355 126.081,222.027 126.677 C 231.312 128.185,242.980 132.025,251.978 136.534 C 256.435 138.767,259.991 140.978,269.479 147.412 C 282.993 156.578,291.947 160.690,301.070 161.920 C 302.142 162.064,303.208 162.256,303.439 162.345 C 303.898 162.522,303.899 162.520,292.390 186.292 C 289.613 192.027,286.078 199.356,284.534 202.578 C 282.990 205.800,277.401 217.346,272.115 228.237 C 266.828 239.127,260.829 251.517,258.782 255.770 L 255.060 263.503 254.068 263.575 C 252.899 263.660,252.888 263.700,253.701 264.913 C 264.705 281.343,289.672 290.153,318.382 287.738 C 337.727 286.111,355.376 277.247,363.606 265.025 C 364.577 263.583,364.583 263.620,363.367 263.620 L 362.351 263.620 360.393 259.578 C 359.316 257.355,356.997 252.583,355.239 248.975 C 353.480 245.366,346.697 231.342,340.165 217.809 C 333.632 204.277,324.826 186.087,320.595 177.387 L 312.901 161.570 314.165 160.345 C 316.039 158.528,316.696 156.960,316.696 154.306 C 316.696 144.737,303.160 143.205,300.660 152.491 C 300.336 153.694,300.399 153.690,297.744 152.637 C 292.210 150.442,286.651 146.959,275.633 138.787 C 264.887 130.816,263.441 129.869,256.708 126.395 C 243.548 119.605,229.086 115.033,216.755 113.765 C 211.029 113.175,211.715 113.503,211.161 111.094 C 210.565 108.508,209.121 103.998,208.490 102.753 C 208.229 102.238,207.991 101.286,207.962 100.637 C 207.933 99.989,207.838 99.133,207.751 98.736 C 207.621 98.145,207.827 97.552,208.887 95.463 C 212.250 88.838,212.472 82.582,209.595 75.571 C 208.153 72.059,207.420 69.666,205.388 61.841 C 203.371 54.072,203.416 54.208,202.543 53.381 C 201.262 52.169,200.215 51.889,198.844 52.392 M92.102 153.213 C 92.762 153.747,92.798 155.076,92.164 155.539 C 91.500 156.025,90.401 155.806,90.012 155.110 C 89.170 153.602,90.779 152.142,92.102 153.213 M309.560 153.213 C 310.220 153.747,310.255 155.076,309.622 155.539 C 308.957 156.025,307.859 155.806,307.470 155.110 C 306.628 153.602,308.237 152.142,309.560 153.213 M89.884 162.800 C 89.986 163.026,90.112 185.803,90.165 213.415 L 90.261 263.620 65.283 263.620 C 51.545 263.620,40.305 263.582,40.305 263.536 C 40.305 263.252,41.662 260.433,60.385 221.822 C 66.627 208.951,72.981 195.822,74.505 192.648 C 88.167 164.199,89.418 161.771,89.884 162.800 M307.389 213.096 L 307.455 263.309 290.752 263.464 C 271.158 263.647,257.762 263.665,257.762 263.510 C 257.762 263.334,268.337 241.347,275.572 226.479 C 279.210 219.004,283.450 210.252,284.996 207.030 C 300.374 174.969,306.685 162.245,307.036 162.596 C 307.260 162.819,307.337 173.929,307.389 213.096 M311.581 164.441 C 312.508 166.140,329.549 201.304,352.717 249.326 C 355.297 254.675,357.896 260.000,358.491 261.160 C 359.087 262.320,359.610 263.348,359.654 263.445 C 359.698 263.541,348.495 263.620,334.759 263.620 L 309.783 263.620 309.783 213.738 C 309.783 186.302,309.849 163.525,309.930 163.122 C 310.148 162.030,310.355 162.195,311.581 164.441 M93.500 163.331 C 94.147 164.240,102.866 182.113,116.589 210.662 C 118.169 213.948,119.959 217.639,120.566 218.864 C 121.565 220.875,124.281 226.487,134.973 248.623 C 136.871 252.554,139.112 257.141,139.952 258.817 C 140.793 260.493,141.645 262.259,141.847 262.742 L 142.214 263.620 117.270 263.620 L 92.326 263.620 92.326 213.122 C 92.326 158.545,92.254 161.581,93.500 163.331 " stroke="none" fill="#000000" fill-rule="evenodd"></path></g></svg>